<svg width="100" height="100" viewBox="0 0 100 100" fill="none" xmlns="http://www.w3.org/2000/svg">
<path d="M39 65C39 74.9411 47.0589 83 57 83L84 83C86.7614 83 89 80.7614 89 78L89 44C89 38.4772 84.5228 34 79 34L44 34C41.2386 34 39 36.2386 39 39L39 65Z" fill="#FFF1DA"/>
<path d="M62 44.8482V39.1518C62 38.0351 61.0947 37.1299 59.9781 37.1299H57.7994C56.9282 37.1299 56.1553 36.5717 55.8815 35.7448C55.5764 34.8235 55.2058 33.9322 54.7752 33.0763C54.3831 32.2967 54.5332 31.3542 55.1502 30.7371L56.6916 29.1957C57.4813 28.406 57.4813 27.1259 56.6916 26.3362L52.6637 22.3082C51.874 21.5186 50.5938 21.5186 49.8042 22.3082L48.2628 23.8497C47.6457 24.4668 46.7032 24.6168 45.9236 24.2246C45.0677 23.7941 44.1763 23.4234 43.2551 23.1184C42.4282 22.8446 41.87 22.0716 41.87 21.2005V19.0219C41.87 17.9052 40.9648 17 39.8481 17H34.1517C33.035 17 32.1298 17.9052 32.1298 19.0219V21.2006C32.1298 22.0717 31.5716 22.8447 30.7446 23.1185C29.8234 23.4235 28.9321 23.7942 28.0761 24.2247C27.2966 24.6169 26.3541 24.4668 25.737 23.8498L24.1956 22.3083C23.4059 21.5187 22.1257 21.5187 21.3361 22.3083L17.3083 26.3363C16.5187 27.126 16.5187 28.4061 17.3083 29.1958L18.8498 30.7372C19.4668 31.3543 19.6169 32.2968 19.2247 33.0764C18.7941 33.9323 18.4235 34.8236 18.1185 35.7449C17.9249 36.3293 17.4822 36.7794 16.9317 36.9932C16.7032 37.0819 16.5567 37.2305 16.3012 37.2305H14.1225C13.0058 37.2305 12.1006 38.1357 12.1006 39.2524V44.7476C12.1006 45.8643 13.0058 46.7695 14.1225 46.7695H16.3012C17.1723 46.7695 17.9453 47.4283 18.2191 48.2552C18.5241 49.1765 18.8948 50.0677 19.3253 50.9237C19.7175 51.7033 19.5674 52.6458 18.9504 53.2629L17.5095 54.8043C16.7199 55.594 16.7199 56.8741 17.5095 57.6638L21.3363 61.4905C22.1259 62.2802 23.4061 62.2802 24.1958 61.4905L25.7372 59.9491C26.3542 59.332 27.2968 59.182 28.0763 59.5741C28.9323 60.0047 30.0248 60.476 30.9461 60.781C31.773 61.0548 32.3312 61.8278 32.3312 62.6989V64.8776C32.3312 65.9943 33.2364 66.8995 34.3531 66.8995H39.7477C40.8644 66.8995 41.7696 65.9943 41.7696 64.8776V62.6989C41.7696 62.4434 41.9182 62.2969 42.0069 62.0684C42.2207 61.5179 42.6709 61.0751 43.2552 60.8816C44.1764 60.5766 45.0678 60.2059 45.9237 59.7754C46.7033 59.3832 47.6458 59.5333 48.2629 60.1503L49.8043 61.6917C50.5939 62.4814 51.8741 62.4814 52.6638 61.6917L56.6917 57.6638C57.4814 56.8741 57.4814 55.594 56.6917 54.8043L55.1503 53.2629C54.5333 52.6458 54.3832 51.7033 54.7753 50.9237C55.2059 50.0678 55.5765 49.1765 55.8816 48.2552C56.1554 47.4283 56.9284 46.8701 57.7995 46.8701H59.9781C61.0947 46.8701 62 45.9649 62 44.8482Z" fill="#B6C4CF"/>
<path d="M42.007 62.0684C41.9185 62.2967 41.8702 62.5442 41.8702 62.7998V64.9778C41.8702 66.0945 40.9648 67 39.8481 67H34.1519C33.0352 67 32.1298 66.0945 32.1298 64.9778V62.7998C32.1298 61.9285 31.5714 61.1549 30.7445 60.8812C29.8239 60.5764 28.9326 60.2062 28.0765 59.7756C27.2968 59.3833 26.3541 59.5332 25.7374 60.1499L24.1962 61.6911C23.4064 62.4808 22.1258 62.4808 21.336 61.6911L17.3078 57.6639C16.5191 56.8742 16.5191 55.5935 17.3078 54.8038L18.8501 53.2625C19.4668 52.6458 19.6167 51.7032 19.2243 50.9235C18.7938 50.0674 18.4235 49.176 18.1187 48.2555C17.8451 47.4285 17.0714 46.8702 16.2002 46.8702H14.0221C12.9054 46.8702 12 45.9648 12 44.8481V39.1519C12 38.0352 12.9054 37.1297 14.0221 37.1297H16.2002C16.4557 37.1297 16.7032 37.0815 16.9316 36.9929C16.9296 37.1187 16.9286 37.2454 16.9286 37.3722C16.9286 51.013 27.9869 62.0714 41.6278 62.0714C41.7545 62.0714 41.8813 62.0704 42.007 62.0684Z" fill="#9FACBA"/>
<path d="M37 58.5996C46.1677 58.5996 53.5996 51.1677 53.5996 42C53.5996 32.8323 46.1677 25.4004 37 25.4004C27.8323 25.4004 20.4004 32.8323 20.4004 42C20.4004 51.1677 27.8323 58.5996 37 58.5996Z" fill="#9FACBA"/>
<path d="M36.9999 55.0784C44.2229 55.0784 50.0783 49.223 50.0783 42C50.0783 34.7769 44.2229 28.9215 36.9999 28.9215C29.7768 28.9215 23.9214 34.7769 23.9214 42C23.9214 49.223 29.7768 55.0784 36.9999 55.0784Z" fill="#F8F7F7"/>
</svg>
