<svg width="100" height="100" viewBox="0 0 100 100" fill="none" xmlns="http://www.w3.org/2000/svg">
<path d="M95 72C95 81.9411 86.9411 90 77 90L50 90C47.2386 90 45 87.7614 45 85L45 51C45 45.4772 49.4772 41 55 41L90 41C92.7614 41 95 43.2386 95 46L95 72Z" fill="#FFF1DA"/>
<path d="M26.5271 62.6574L24.639 61.7535L13.4224 78.3382H25.9403L27.1466 77.5516V63.225L26.5271 62.6574Z" fill="#407093"/>
<path d="M24.8097 61.8353L20.5646 59.803H19.7645L7.76074 77.5516L8.47537 78.3382H13.6484L24.8097 61.8353Z" fill="#365E7D"/>
<path d="M29.3999 77.5515H12.8474C12.0955 77.5515 11.4858 78.161 11.4858 78.9131V80.6385C11.4858 81.3903 12.0953 81.9998 12.8471 81.9999H29.3999C30.1519 81.9999 30.7615 81.3904 30.7615 80.6385V78.9131C30.7615 78.161 30.1519 77.5515 29.3999 77.5515Z" fill="#4A80AA"/>
<path d="M11.7677 80.6385V78.9131C11.7677 78.1611 12.3774 77.5515 13.1293 77.5515H4.36158C3.60963 77.5515 3 78.161 3 78.9131V80.6385C3 81.3904 3.60963 81.9999 4.36158 81.9999H13.1292C12.3772 81.9999 11.7677 81.3904 11.7677 80.6385Z" fill="#407093"/>
<path d="M24.2399 51.9827C23.7303 53.0338 23.4424 54.2123 23.4424 55.459C23.4424 58.8659 25.5757 61.7721 28.5783 62.9218C29.8675 62.5179 31.0129 61.7893 31.9177 60.8301V59.0893L24.2399 51.9827Z" fill="#4A80AA"/>
<path d="M23.5767 55.4863C23.5767 54.2684 23.8583 53.1173 24.357 52.0909L21.9027 49.8192H20.9069C19.4009 51.2399 18.4595 53.2525 18.4595 55.4862C18.4595 59.7893 21.9477 63.2775 26.2508 63.2775C27.1471 63.2775 28.0067 63.1237 28.8078 62.8449C25.7628 61.7856 23.5767 58.8921 23.5767 55.4863Z" fill="#407093"/>
<path d="M68.812 12.9247C67.5791 11.6918 65.5801 11.6918 64.3473 12.9247L61.3345 15.9376V16.3194L65.0949 20.2395L65.7991 20.4022L68.8119 17.3894C70.0449 16.1566 70.0449 14.1576 68.812 12.9247Z" fill="#FFD086"/>
<path d="M69.6449 14.4149C69.5134 13.8691 69.238 13.3508 68.812 12.9247C67.5791 11.6918 65.5801 11.6918 64.3473 12.9247L61.3345 15.9376V16.3194L63.3282 18.3978C64.5169 17.1609 65.697 15.9403 66.3039 15.3334C67.3156 14.3218 68.7933 14.314 69.6449 14.4149Z" fill="#FFC365"/>
<path d="M58.4976 20.9503C58.463 20.9503 58.428 20.9485 58.3929 20.9451L23.5764 17.5181C22.9958 17.4609 22.5715 16.944 22.6287 16.3634C22.6858 15.7827 23.203 15.3588 23.7834 15.4155L58.5998 18.8423C59.1803 18.8995 59.6047 19.4164 59.5476 19.9971C59.4938 20.5427 59.0343 20.9503 58.4976 20.9503Z" fill="#365E7D"/>
<path d="M33.6459 27.4681C33.1774 27.4681 32.7493 27.1539 32.6249 26.6795C32.4769 26.1151 32.8144 25.5377 33.3787 25.3896L58.2287 18.8715C58.793 18.7237 59.3706 19.061 59.5185 19.6254C59.6666 20.1896 59.3292 20.7671 58.7648 20.9152L33.9147 27.4333C33.8248 27.4568 33.7345 27.4681 33.6459 27.4681Z" fill="#407093"/>
<path d="M65.2465 59.136C64.7093 59.136 64.2498 58.7281 64.1964 58.1823L60.7907 23.3445C60.734 22.764 61.1586 22.2472 61.7393 22.1903C62.3199 22.1362 62.8366 22.5584 62.8933 23.139L66.299 57.9768C66.3557 58.5573 65.9311 59.0741 65.3504 59.131C65.3156 59.1342 65.2808 59.136 65.2465 59.136Z" fill="#365E7D"/>
<path d="M55.2252 49.2475C55.1357 49.2475 55.0446 49.2359 54.9538 49.212C54.3899 49.0624 54.054 48.4841 54.2035 47.9201L60.8176 22.9741C60.967 22.41 61.5452 22.0746 62.1093 22.2236C62.6732 22.3732 63.0092 22.9515 62.8596 23.5155L56.2456 48.4615C56.1202 48.9348 55.6927 49.2475 55.2252 49.2475Z" fill="#407093"/>
<path d="M58.3069 18.9643L61.3274 15.9438L65.7914 20.4078L62.7709 23.4284L58.3069 18.9643Z" fill="#FFC365"/>
<path d="M60.6008 21.2457C61.3268 20.4856 62.4604 19.3 63.5569 18.16L61.3345 15.9375L58.3135 18.9584L60.6008 21.2457Z" fill="#FFA90F"/>
<path d="M63.4509 25.1519C63.1806 25.1519 62.9102 25.0487 62.704 24.8425L56.8944 19.0331C56.4818 18.6204 56.4818 17.9517 56.8944 17.539C57.3069 17.1267 57.9757 17.1267 58.3883 17.539L64.1979 23.3484C64.6105 23.761 64.6105 24.4297 64.1979 24.8425C63.9916 25.0488 63.7213 25.1519 63.4509 25.1519Z" fill="#4A80AA"/>
<path d="M64.1326 61.0376L28.7617 25.36C24.0723 35.9466 23.258 47.3114 26.7687 57.1115C36.4642 65.8573 50.9474 67.2003 64.2808 61.7026L64.1326 61.0376Z" fill="#B5DCFF"/>
<path d="M28.9501 25.55L20.8461 17.3757L20.034 17.4558C14.3244 31.3031 15.9915 46.3917 25.6682 56.0684C26.2543 56.6545 26.8608 57.2107 27.4852 57.7383C23.406 47.9498 24.069 36.3077 28.9501 25.55Z" fill="#8BCAFF"/>
<path d="M67.3651 58.5017L31.4916 22.6282C31.1385 22.6826 30.7987 22.8431 30.5269 23.1149L28.9665 24.6754C28.6314 25.0105 28.4647 25.4481 28.46 25.8874L64.2197 61.647C64.7514 62.1787 65.6134 62.1787 66.1451 61.647L67.3652 60.4271C67.8968 59.8955 67.8968 59.0334 67.3651 58.5017Z" fill="#DBEDFF"/>
<path d="M29.0204 24.7021L30.5482 23.1743C30.8296 22.8929 31.1849 22.7318 31.5516 22.6882L23.2353 14.3719C22.7036 13.8402 21.8416 13.8402 21.3098 14.3719L20.0897 15.592C19.558 16.1237 19.558 16.9857 20.0897 17.5174L28.5229 25.9506C28.5118 25.5 28.6766 25.0459 29.0204 24.7021Z" fill="#B5DCFF"/>
</svg>
