<svg width="100" height="100" viewBox="0 0 100 100" fill="none" xmlns="http://www.w3.org/2000/svg">
<g clip-path="url(#clip0)">
<path d="M19.5371 44.6572C19.5371 54.4884 27.5069 62.4581 37.3381 62.4581L64.0395 62.4581C66.7704 62.4581 68.9842 60.2443 68.9842 57.5134L68.9842 23.8894C68.9842 18.4276 64.5565 14 59.0948 14L24.4818 14C21.7509 14 19.5371 16.2138 19.5371 18.9447L19.5371 44.6572Z" fill="#FFF1DA"/>
<path d="M63.0574 58.8224C61.8406 59.0949 60.6555 59.5997 59.5756 60.3051C56.7621 62.0978 55.1253 64.6569 55.9198 66.0204C56.7143 67.3839 59.6391 67.0351 62.4525 65.2424C63.547 64.562 64.5192 63.6924 65.3095 62.6873C65.6762 62.2017 65.742 61.5966 65.4776 61.1443L64.4454 59.373C64.1828 58.9193 63.6381 58.7035 63.0574 58.8224Z" fill="#D5D6DB"/>
<path d="M55.9929 34.6424C55.1106 34.8402 54.2511 35.2064 53.468 35.7179C51.4284 37.0175 50.2409 38.873 50.8165 39.8609C51.3921 40.8487 53.5137 40.5957 55.5531 39.2962C56.3466 38.8026 57.0516 38.1717 57.6247 37.4428C57.8903 37.0909 57.9379 36.6525 57.7462 36.3246L56.9988 35.042C56.8087 34.7131 56.414 34.5563 55.9929 34.6424Z" fill="#D5D6DB"/>
<path d="M44.514 35.6551C44.3176 35.6331 44.1082 35.6855 43.9266 35.8015L39.1357 38.8545C38.735 39.1091 38.5747 39.5994 38.7779 39.9498C38.8244 40.0301 38.888 40.0987 38.9653 40.1515L50.7732 48.2897L66.7481 38.1094L44.514 35.6551Z" fill="#029BC5"/>
<path d="M95.0153 34.5043L51.5413 61.8724L25.8209 72.1071L12.7038 74.7145L11.2607 72.2625L83.7253 27.5211C85.8849 26.182 88.2906 25.3601 90.6992 25.1388C91.754 25.0475 92.7957 25.0826 93.8 25.2427C94.6904 25.3777 95.5351 25.6382 96.3087 26.0163C97.1721 26.4447 98.8156 26.4941 99.3479 27.3476C99.3497 27.3462 100.606 31.2647 95.0153 34.5043Z" fill="#E1E6E9"/>
<path d="M52.1173 58.2511L33.3101 88.233C33.0752 88.6542 33.2147 89.1258 33.6212 89.2863C33.8708 89.3849 34.1762 89.346 34.4327 89.1829L39.2198 86.1461C40.1405 85.5617 40.9558 84.8195 41.6152 83.9653L78.0883 41.085L52.1173 58.2511Z" fill="#029BC5"/>
<path d="M5.61038 56.2991C5.29666 56.1918 4.92331 56.2474 4.60815 56.4482L0.651028 58.9684C0.111841 59.3115 -0.103013 59.9712 0.170973 60.4421C0.223175 60.5316 0.290986 60.6103 0.372266 60.6752L11.4592 69.5546L23.116 62.2735L5.61038 56.2991Z" fill="#029BC5"/>
<path d="M15.1752 71.1553L9.20794 79.5125C9.12045 79.6326 9.14103 79.7834 9.25385 79.8491C9.33522 79.8965 9.44631 79.8879 9.5366 79.8274L13.2346 77.4841C13.2633 77.4659 13.2893 77.4431 13.3109 77.417L22.03 66.8156L15.1752 71.1553Z" fill="#029BC5"/>
<path d="M93.0862 25.6031C92.052 25.4369 90.9792 25.4015 89.8927 25.497C88.8349 26.976 88.1588 28.6374 87.9318 30.3156C87.9152 30.6527 88.187 30.8953 88.539 30.8575C88.6484 30.8457 88.7572 30.8072 88.8551 30.7456L95.6701 26.4062C94.8732 26.0133 94.0033 25.7429 93.0862 25.6031Z" fill="#029BC5"/>
<path d="M78.2349 33.5828L82.6842 30.7728L86.8287 37.8217L82.3793 40.6318L78.2349 33.5828Z" fill="#D5D6DB"/>
<path d="M75.4354 36.3707C74.8993 36.7103 74.685 37.3632 74.9572 37.8287L75.3982 38.5829C75.6883 39.0366 76.3505 39.1164 76.8775 38.761C77.379 38.4226 77.5809 37.8075 77.3392 37.3533L76.8982 36.5991C76.6263 36.1339 75.9716 36.0316 75.4354 36.3707Z" fill="#3A556A"/>
<path d="M71.4362 38.8542C70.9 39.1938 70.6857 39.8467 70.9579 40.3122L71.3989 41.0665C71.689 41.5201 72.3513 41.5999 72.8782 41.2446C73.3797 40.9061 73.5816 40.291 73.34 39.8368L72.899 39.0826C72.6268 38.6176 71.9721 38.5152 71.4362 38.8542Z" fill="#3A556A"/>
<path d="M67.4358 41.3385C66.9002 41.6786 66.6867 42.3306 66.9586 42.7958L67.3996 43.55C67.6897 44.0037 68.352 44.0834 68.8789 43.7281C69.3804 43.3897 69.5824 42.7746 69.3407 42.3204L68.8997 41.5662C68.6275 41.1007 67.9722 40.9987 67.4358 41.3385Z" fill="#3A556A"/>
<path d="M63.4368 43.822C62.9012 44.162 62.6876 44.8141 62.9596 45.2793L63.4006 46.0335C63.6907 46.4872 64.353 46.567 64.8799 46.2116C65.3814 45.8732 65.5834 45.2581 65.3417 44.8039L64.9007 44.0496C64.6282 43.5842 63.9729 43.4823 63.4368 43.822Z" fill="#3A556A"/>
<path d="M59.4381 46.3057C58.9022 46.6459 58.6885 47.2983 58.9606 47.7636L59.4019 48.5182C59.6739 48.9833 60.329 49.0852 60.865 48.7457C61.401 48.4062 61.615 47.7539 61.343 47.2888L60.9017 46.5342C60.6304 46.0686 59.9756 45.9661 59.4392 46.305C59.4387 46.3053 59.4385 46.3054 59.4381 46.3057Z" fill="#3A556A"/>
<path d="M55.4388 48.7892C54.9029 49.1294 54.6892 49.7817 54.9614 50.2471L55.4026 51.0016C55.6747 51.4668 56.3297 51.5687 56.8657 51.2292C57.4017 50.8897 57.6157 50.2374 57.3437 49.7722L56.9024 49.0177C56.6311 48.5521 55.9763 48.4495 55.4399 48.7884C55.4395 48.7887 55.439 48.789 55.4388 48.7892Z" fill="#3A556A"/>
<path d="M51.4395 51.2728C50.9036 51.613 50.69 52.2653 50.9621 52.7306L51.4034 53.4852C51.6761 53.9499 52.3314 54.0507 52.8668 53.7108C53.4014 53.3714 53.6149 52.7205 53.3442 52.2559L52.9029 51.5014C52.631 51.0359 51.976 50.9335 51.4395 51.2728Z" fill="#3A556A"/>
<path d="M47.44 53.7564C46.9041 54.0966 46.6905 54.749 46.9626 55.2143L47.4038 55.9689C47.6765 56.4336 48.3319 56.5344 48.8673 56.1945C49.4019 55.8551 49.6154 55.2042 49.3447 54.7396L48.9034 53.985C48.6315 53.5195 47.9765 53.4171 47.44 53.7564Z" fill="#3A556A"/>
<path d="M43.441 56.2399C42.9051 56.5801 42.6914 57.2324 42.9636 57.6977L43.4048 58.4523C43.6775 58.917 44.3329 59.0178 44.8683 58.6779C45.4028 58.3385 45.6164 57.6876 45.3456 57.223L44.9044 56.4685C44.6322 56.0032 43.9772 55.9008 43.441 56.2399Z" fill="#3A556A"/>
<path d="M39.4407 58.7241C38.9047 59.0636 38.6907 59.7159 38.9627 60.181L38.9633 60.182L39.4046 60.9366C39.6773 61.4013 40.3326 61.5021 40.8681 61.1622C41.4026 60.8228 41.6161 60.1719 41.3454 59.7073L40.9041 58.9528C40.6322 58.4873 39.9772 58.3848 39.4407 58.7241Z" fill="#3A556A"/>
<path d="M35.4427 61.2069C34.9067 61.5464 34.6927 62.1987 34.9647 62.6638L34.9653 62.6648L35.4065 63.4193C35.6792 63.884 36.3346 63.9849 36.8701 63.6449C37.4046 63.3056 37.6182 62.6547 37.3474 62.1901L36.9061 61.4356C36.634 60.9702 35.9789 60.8678 35.4427 61.2069Z" fill="#3A556A"/>
</g>
<defs>
<clipPath id="clip0">
<rect width="100" height="100" fill="white"/>
</clipPath>
</defs>
</svg>
